#N canvas 0 22 1440 799 10;
#X obj -586 -415 gemwin;
#X msg -585 -528 create;
#X msg -543 -503 destroy;
#X msg -537 -452 dimen 352 340;
#X obj -521 -479 tgl 15 0 empty empty empty 17 7 0 10 -262144 -1 -1
0 1;
#X text -588 -560 Start Render;
#X msg -243 -588 open \$1;
#X obj -243 -624 openpanel;
#X obj -243 -654 bng 15 250 50 0 empty empty empty 17 7 0 10 -262144
-1 -1;
#X msg -390 -601 auto \$1;
#X obj -390 -631 tgl 15 0 empty empty empty 17 7 0 10 -262144 -1 -1
0 1;
#X obj -310 -600 gemhead 2;
#X obj -63 -537 pix_film;
#X msg 17 -595 open \$1;
#X obj 17 -632 openpanel;
#X msg -123 -602 auto \$1;
#X obj -123 -636 tgl 15 0 empty empty empty 17 7 0 10 -262144 -1 -1
0 1;
#X obj -62 -605 gemhead 3;
#X obj 17 -660 bng 15 250 50 0 empty empty empty 17 7 0 10 -262144
-1 -1;
#X text -329 -675 video 1;
#X text -70 -677 video 2;
#X obj -571 453 rectangle;
#X obj -310 -532 pix_film;
#X obj -549 119 pix_texture;
#X msg -255 -559 colorspace Grey;
#X msg 23 -567 colorspace Grey;
#X obj -218 -306 hsl 128 15 1.27 127 1 0 empty empty empty -2 -8 0
10 -258113 -1 -1 0 1;
#X obj -209 -277 hsl 128 15 1.27 127 1 0 empty empty empty -2 -8 0
10 -4034 -1 -1 0 1;
#X obj -186 -249 hsl 128 15 1.27 127 1 0 empty empty empty -2 -8 0
10 -4160 -1 -1 0 1;
#X obj -310 -495 alpha;
#X obj 51 -309 hsl 128 15 0 127 0 0 empty empty empty -2 -8 0 10 -258113
-1 -1 0 1;
#X obj 66 -282 hsl 128 15 0 127 0 0 empty empty empty -2 -8 0 10 -4034
-1 -1 0 1;
#X obj 101 -258 hsl 128 15 0 127 0 0 empty empty empty -2 -8 0 10 -4160
-1 -1 0 1;
#X obj -63 -499 alpha;
#X obj -56 -111 pix_gain;
#X msg -20 -160 1;
#X floatatom 13 -201 5 0 0 0 - - -;
#X floatatom 51 -201 5 0 0 0 - - -;
#X floatatom 96 -201 5 0 0 0 - - -;
#X obj 12 -165 bondo 3;
#X obj 12 -137 pack f f f;
#X text 25 -110 Gain Control;
#X text -30 -191 Reset;
#X obj -302 -103 pix_gain;
#X msg -251 -157 1;
#X floatatom -218 -198 5 0 0 0 - - -;
#X floatatom -180 -198 5 0 0 0 - - -;
#X floatatom -135 -198 5 0 0 0 - - -;
#X obj -219 -162 bondo 3;
#X obj -219 -134 pack f f f;
#X text -206 -107 Gain Control;
#X text -258 -180 Reset;
#X obj 189 -35 pix_lumaoffset;
#X floatatom 427 -70 5 0 0 0 - - -;
#X floatatom 330 -72 5 0 0 0 - - -;
#X text 369 -74 gap;
#X text 464 -71 offset;
#X msg 271 -105 fill \$1;
#X obj 271 -135 tgl 15 0 empty empty empty 17 7 0 10 -262144 -1 -1
0 1;
#X msg 184 -98 smooth \$1;
#X obj 183 -127 tgl 15 0 empty empty empty 17 7 0 10 -262144 -1 -1
0 1;
#X obj 329 -140 bng 15 250 50 0 empty empty empty 17 7 0 10 -262144
-1 -1;
#X obj 426 -142 bng 15 250 50 0 empty empty empty 17 7 0 10 -262144
-1 -1;
#X msg 329 -115 0;
#X msg 426 -117 0;
#X obj 369 -218 vsl 15 128 0 127 0 0 empty empty empty 0 -9 0 10 -159808
-1 -1 0 1;
#X obj 495 -218 vsl 15 128 0 127 0 0 empty empty empty 0 -9 0 10 -159808
-1 -1 0 1;
#X obj -563 6 pix_lumaoffset;
#X floatatom -400 -20 5 0 0 0 - - -;
#X floatatom -474 -17 5 0 0 0 - - -;
#X text -444 -24 gap;
#X text -357 -20 offset;
#X msg -636 -48 fill \$1;
#X obj -636 -79 tgl 15 0 empty empty empty 17 7 0 10 -262144 -1 -1
0 50;
#X msg -573 -52 smooth \$1;
#X obj -571 -80 tgl 15 0 empty empty empty 17 7 0 10 -262144 -1 -1
0 50;
#X obj -461 -187 vsl 15 128 0 127 0 0 empty empty empty 0 -9 0 10 -159808
-1 -1 0 1;
#X obj -360 -191 vsl 15 128 0 127 0 0 empty empty empty 0 -9 0 10 -159808
-1 -1 0 1;
#X obj 362 -642 adc~;
#X obj 463 -570 unpack;
#X floatatom 464 -522 5 0 0 0 - - -;
#X floatatom 506 -522 5 0 0 0 - - -;
#X obj 407 -601 fiddle~ 1024 1 20 3;
#X text 507 -499 volume (dB);
#X floatatom 532 -568 5 0 0 0 - - -;
#X text 536 -544 total volume (dB);
#X floatatom -487 404 5 0 0 0 - - -;
#X obj -362 139 bng 15 250 50 0 empty empty empty 17 7 0 10 -262144
-1 -1;
#X msg -362 161 4;
#X obj 187 479 rectangle;
#X obj 186 416 pix_texture;
#X floatatom 297 457 5 0 0 0 - - -;
#X floatatom 223 453 5 0 0 0 - - -;
#X obj 400 337 bng 15 250 50 0 empty empty empty 17 7 0 10 -262144
-1 -1;
#X msg 399 356 4;
#X obj 186 378 pix_alpha;
#X floatatom 211 141 5 0 0 0 - - -;
#X obj 208 109 hsl 128 15 0 1 0 0 empty empty empty -2 -8 0 10 -258113
-1 -1 0 1;
#X obj 186 62 pix_rgba;
#X obj -23 -314 bng 15 250 50 0 empty empty empty 17 7 0 10 -262144
-1 -1;
#X obj -24 -285 bng 15 250 50 0 empty empty empty 17 7 0 10 -262144
-1 -1;
#X obj -23 -252 bng 15 250 50 0 empty empty empty 17 7 0 10 -262144
-1 -1;
#X obj -288 -310 bng 15 250 50 0 empty empty empty 17 7 0 10 -262144
-1 -1;
#X obj -290 -275 bng 15 250 50 0 empty empty empty 17 7 0 10 -262144
-1 -1;
#X obj -292 -248 bng 15 250 50 0 empty empty empty 17 7 0 10 -262144
-1 -1;
#X obj -460 -276 ctlin 16 1;
#X obj -376 -276 ctlin 17 1;
#X obj 369 -245 ctlin 18 1;
#X obj 495 -245 ctlin 19 1;
#X obj -286 -347 ctlin 36 1;
#X obj -204 -346 ctlin 37 1;
#X obj -126 -345 ctlin 28 1;
#X obj -6 -345 ctlin 38 1;
#X obj 85 -344 ctlin 50 1;
#X obj 179 -345 ctlin 55 1;
#X obj -495 -97 bng 15 250 50 0 empty empty empty 17 7 0 10 -262144
-1 -1;
#X msg -495 -72 0;
#X obj -405 -105 bng 15 250 50 0 empty empty empty 17 7 0 10 -262144
-1 -1;
#X msg -405 -80 0;
#X obj -460 382 hsl 128 15 4 127 0 0 empty empty empty -2 -8 0 10 -257985
-1 -1 0 1;
#X obj -311 385 hsl 128 15 4 127 0 0 empty empty empty -2 -8 0 10 -257985
-1 -1 0 1;
#X obj 307 412 hsl 128 15 4 127 0 0 empty empty empty -2 -8 0 10 -257985
-1 -1 0 1;
#X obj 454 411 hsl 128 15 4 127 0 0 empty empty empty -2 -8 0 10 -257985
-1 -1 0 1;
#X floatatom -320 105 5 0 0 0 - - -;
#X obj 263 -582 env~;
#X obj 263 -607 lop~ 40;
#X floatatom 263 -554 5 0 0 0 - - -;
#X obj 192 38 pix_texture;
#X obj 191 9 pix_movement 0.5;
#X floatatom 356 -4 5 0 0 0 - - -;
#X obj 355 16 / 200;
#X obj 356 -34 ctlin 52 1;
#X obj 361 -578 bpm;
#X obj 361 -603 env~;
#X floatatom 361 -551 5 0 0 0 - - -;
#X text -278 -212 comment;
#X obj -570 391 rotateXYZ;
#X floatatom -416 411 5 0 0 0 - - -;
#X obj 79 -511 smooth;
#X floatatom 72 -443 5 0 0 0 - - -;
#X obj 361 -525 / 25;
#X floatatom 380 148 5 0 0 0 - - -;
#X obj 256 60 ctlin 7 1;
#X obj 231 91 / 100;
#X obj -553 148 ctlin 3 1;
#X obj -482 146 ctlin 61 1;
#X obj -551 92 pix_threshold;
#X floatatom -508 69 5 0 0 0 - - -;
#X obj -450 29 ctlin 47 1;
#X obj -447 54 hsl 128 15 0 127 0 0 empty empty empty -2 -8 0 10 -159808
-1 -1 0 1;
#X msg -507 46 0;
#X text 347 -672 AudioInput;
#X text 421 -631 Pitch Estimator;
#X connect 1 0 0 0;
#X connect 2 0 0 0;
#X connect 3 0 0 0;
#X connect 4 0 0 0;
#X connect 6 0 22 0;
#X connect 7 0 6 0;
#X connect 8 0 7 0;
#X connect 9 0 22 0;
#X connect 10 0 9 0;
#X connect 11 0 22 0;
#X connect 12 0 33 0;
#X connect 13 0 12 0;
#X connect 14 0 13 0;
#X connect 15 0 12 0;
#X connect 16 0 15 0;
#X connect 17 0 12 0;
#X connect 18 0 14 0;
#X connect 22 0 29 0;
#X connect 23 0 136 0;
#X connect 24 0 22 0;
#X connect 25 0 12 0;
#X connect 26 0 45 0;
#X connect 27 0 46 0;
#X connect 28 0 47 0;
#X connect 29 0 43 0;
#X connect 30 0 36 0;
#X connect 31 0 37 0;
#X connect 32 0 38 0;
#X connect 33 0 34 0;
#X connect 34 0 52 0;
#X connect 35 0 34 1;
#X connect 36 0 39 0;
#X connect 37 0 39 1;
#X connect 38 0 39 2;
#X connect 39 0 40 0;
#X connect 39 1 40 1;
#X connect 39 2 40 2;
#X connect 40 0 34 2;
#X connect 43 0 67 0;
#X connect 44 0 43 1;
#X connect 45 0 48 0;
#X connect 46 0 48 1;
#X connect 47 0 48 2;
#X connect 48 0 49 0;
#X connect 48 1 49 1;
#X connect 48 2 49 2;
#X connect 49 0 43 2;
#X connect 52 0 128 0;
#X connect 53 0 52 2;
#X connect 54 0 52 1;
#X connect 57 0 52 0;
#X connect 58 0 57 0;
#X connect 59 0 52 0;
#X connect 60 0 59 0;
#X connect 61 0 63 0;
#X connect 62 0 64 0;
#X connect 63 0 54 0;
#X connect 64 0 53 0;
#X connect 65 0 54 0;
#X connect 66 0 53 0;
#X connect 67 0 146 0;
#X connect 68 0 67 2;
#X connect 69 0 67 1;
#X connect 72 0 67 0;
#X connect 73 0 72 0;
#X connect 74 0 67 0;
#X connect 75 0 74 0;
#X connect 76 0 69 0;
#X connect 77 0 68 0;
#X connect 78 0 82 0;
#X connect 78 0 125 0;
#X connect 78 0 133 0;
#X connect 79 0 80 0;
#X connect 79 1 81 0;
#X connect 82 2 79 0;
#X connect 82 3 84 0;
#X connect 86 0 21 1;
#X connect 87 0 88 0;
#X connect 88 0 119 0;
#X connect 88 0 120 0;
#X connect 90 0 89 0;
#X connect 91 0 89 2;
#X connect 92 0 89 1;
#X connect 93 0 94 0;
#X connect 94 0 121 0;
#X connect 94 0 122 0;
#X connect 95 0 90 0;
#X connect 96 0 95 1;
#X connect 96 0 95 2;
#X connect 96 0 95 3;
#X connect 96 0 95 4;
#X connect 97 0 96 0;
#X connect 98 0 95 0;
#X connect 99 0 30 0;
#X connect 100 0 31 0;
#X connect 101 0 32 0;
#X connect 102 0 26 0;
#X connect 103 0 27 0;
#X connect 104 0 28 0;
#X connect 105 0 76 0;
#X connect 106 0 77 0;
#X connect 107 0 65 0;
#X connect 108 0 66 0;
#X connect 109 0 26 0;
#X connect 110 0 27 0;
#X connect 111 0 28 0;
#X connect 112 0 30 0;
#X connect 113 0 31 0;
#X connect 114 0 32 0;
#X connect 115 0 116 0;
#X connect 116 0 69 0;
#X connect 117 0 118 0;
#X connect 118 0 68 0;
#X connect 119 0 86 0;
#X connect 120 0 137 0;
#X connect 121 0 92 0;
#X connect 122 0 91 0;
#X connect 123 0 119 0;
#X connect 123 0 120 0;
#X connect 124 0 126 0;
#X connect 125 0 124 0;
#X connect 127 0 98 0;
#X connect 128 0 127 0;
#X connect 129 0 130 0;
#X connect 130 0 128 1;
#X connect 131 0 129 0;
#X connect 132 0 134 0;
#X connect 133 0 132 0;
#X connect 134 0 140 0;
#X connect 136 0 21 0;
#X connect 137 0 21 2;
#X connect 138 0 139 0;
#X connect 139 0 123 0;
#X connect 139 0 141 0;
#X connect 140 0 138 0;
#X connect 141 0 121 0;
#X connect 141 0 122 0;
#X connect 142 0 143 0;
#X connect 143 0 97 0;
#X connect 144 0 136 1;
#X connect 145 0 136 2;
#X connect 146 0 23 0;
#X connect 147 0 146 1;
#X connect 148 0 149 0;
#X connect 149 0 147 0;
#X connect 150 0 147 0;
